<?xml version="1.0" encoding="utf-8"?>
<!-- Generator: Adobe Illustrator 26.0.2, SVG Export Plug-In . SVG Version: 6.00 Build 0)  -->
<svg version="1.1" id="Capa_1" xmlns="http://www.w3.org/2000/svg" xmlns:xlink="http://www.w3.org/1999/xlink" x="0px" y="0px"
	 viewBox="0 0 488.7 488.7" style="enable-background:new 0 0 488.7 488.7;" xml:space="preserve">
<style type="text/css">
	.st0{fill:#6675BC;}
</style>
<g>
	<path class="st0" d="M487.1,462.5l-36.4-167.6c0-4.2-2.1-7.3-5.2-10.4L184.2,23.2c-20-22.9-74.3-38.1-112.4,0L23.9,71.1
		c-31,31-31,81.4,0,112.4l261.3,261.3c2.1,2.1,5.2,4.2,9.4,5.2l168.6,38.5C473.3,490,492.3,483.6,487.1,462.5z M53,154.4
		c-15.6-15.6-15.6-39.6,0-55.2l47.9-47.9c15.2-15.2,40-15.2,55.2,0l238.4,238.4h-27.1c-11.4,0-20.8,9.4-20.8,20.8v34.3h-34.3
		c-11.4,0-20.8,9.4-20.8,20.8v26.1L53,154.4z M333,415.7v-29.2h34.3c18,1.7,20.8-16.5,20.8-20.8v-34.4h29.2l24,109.3L333,415.7z"/>
</g>
</svg>
