<?xml version="1.0" encoding="utf-8"?>
<!-- Generator: Adobe Illustrator 26.0.2, SVG Export Plug-In . SVG Version: 6.00 Build 0)  -->
<svg version="1.1" id="Layer_1" xmlns="http://www.w3.org/2000/svg" xmlns:xlink="http://www.w3.org/1999/xlink" x="0px" y="0px"
	 viewBox="0 0 489.1 489.1" style="enable-background:new 0 0 489.1 489.1;" xml:space="preserve">
<style type="text/css">
	.st0{fill:#6675BC;}
</style>
<g>
	<path class="st0" d="M482.5,220.8L367,109.6V21.1c0-11.4-9.4-20.8-20.8-20.8s-20.8,9.4-20.8,20.8v48.5L258.8,5.5
		c-7.3-7.3-19.8-7.3-28.1,0L7.1,220.8c-8.3,8.3-9.4,20.8-1,29.1s20.8,9.4,29.1,1l3.1-3v220.4c0,11.4,9.4,20.8,20.8,20.8h372.4
		c11.4,0,19.8-9.4,20.8-19.8V250l2.1,2c15.2,10.5,26,3.1,29.1-2.1C490.8,241.6,490.8,228.1,482.5,220.8z M281.7,448.6h-72.8V337.3
		h72.8V448.6z M410.7,448.6h-88.4V316.5c0-11.4-9.4-20.8-20.8-20.8H188.1c-11.4,0-20.8,9.4-20.8,20.8v132.1H79.9V244.7h330.8V448.6
		L410.7,448.6z M83.9,204.2l161.4-155l159.8,155H83.9z"/>
</g>
</svg>
