<?xml version="1.0" encoding="utf-8"?>
<!-- Generator: Adobe Illustrator 26.0.2, SVG Export Plug-In . SVG Version: 6.00 Build 0)  -->
<svg version="1.1" id="Layer_1" xmlns="http://www.w3.org/2000/svg" xmlns:xlink="http://www.w3.org/1999/xlink" x="0px" y="0px"
	 viewBox="0 0 502 502" style="enable-background:new 0 0 502 502;" xml:space="preserve">
<style type="text/css">
	.st0{fill:#6675BC;}
</style>
<g>
	<g>
		<g>
			<path class="st0" d="M159,171h303c22.1,0,40-17.9,40-40s-17.9-40-40-40H159c-22.1,0-40,17.9-40,40S136.9,171,159,171z M159,111
				h303c11,0,20,9,20,20s-9,20-20,20H159c-11,0-20-9-20-20S148,111,159,111z"/>
			<path class="st0" d="M462,211H159c-22.1,0-40,17.9-40,40s17.9,40,40,40h303c22.1,0,40-17.9,40-40S484.1,211,462,211z M462,271
				H159c-11,0-20-9-20-20c0-11,9-20,20-20h303c11,0,20,9,20,20C482,262,473,271,462,271z"/>
			<path class="st0" d="M462,331H159c-22.1,0-40,17.9-40,40s17.9,40,40,40h303c22.1,0,40-17.9,40-40S484.1,331,462,331z M462,391
				H159c-11,0-20-9-20-20s9-20,20-20h303c11,0,20,9,20,20S473,391,462,391z"/>
			<path class="st0" d="M49,82c-27,0-49,22-49,49s22,49,49,49s49-22,49-49S76,82,49,82z M49,160c-16,0-29-13-29-29s13-29,29-29
				s29,13,29,29S65,160,49,160z"/>
			<path class="st0" d="M49,202c-27,0-49,22-49,49c0,27,22,49,49,49s49-22,49-49S76,202,49,202z M49,280c-16,0-29-13-29-29
				s13-29,29-29s29,13,29,29S65,280,49,280z"/>
			<path class="st0" d="M49,322c-27,0-49,22-49,49s22,49,49,49s49-22,49-49S76,322,49,322z M49,400c-16,0-29-13-29-29s13-29,29-29
				s29,13,29,29S65,400,49,400z"/>
			<path class="st0" d="M216,139h171c5.5,0,10-4.5,10-10s-4.5-10-10-10H216c-5.5,0-10,4.5-10,10C206,134.5,210.5,139,216,139z"/>
			<path class="st0" d="M158,139h18c5.5,0,10-4.5,10-10s-4.5-10-10-10h-18c-5.5,0-10,4.5-10,10C148,134.5,152.5,139,158,139z"/>
		</g>
	</g>
</g>
</svg>
