<?xml version="1.0" encoding="utf-8"?>
<!-- Generator: Adobe Illustrator 26.0.2, SVG Export Plug-In . SVG Version: 6.00 Build 0)  -->
<svg version="1.1" id="Capa_1" xmlns="http://www.w3.org/2000/svg" xmlns:xlink="http://www.w3.org/1999/xlink" x="0px" y="0px"
	 viewBox="0 0 94.5 94.5" style="enable-background:new 0 0 94.5 94.5;" xml:space="preserve">
<style type="text/css">
	.st0{fill:#6675BC;}
</style>
<g>
	<g>
		<path class="st0" d="M93.9,45.8L69.8,21.7C69,21,67.7,21,67,21.7l-5.2,5.2c-0.8,0.8-0.8,2,0,2.8l17.5,17.5L61.7,64.7
			c-0.8,0.8-0.8,2,0,2.8l5.2,5.2c0.4,0.4,0.9,0.6,1.4,0.6c0.5,0,1-0.2,1.4-0.6l24.1-24.1C94.7,47.9,94.7,46.6,93.9,45.8z"/>
		<path class="st0" d="M32.8,64.7L15.3,47.2l17.5-17.5c0.4-0.4,0.6-0.9,0.6-1.4c0-0.5-0.2-1-0.6-1.4l-5.2-5.2
			c-0.4-0.4-0.9-0.6-1.4-0.6c-0.5,0-1,0.2-1.4,0.6L0.6,45.8c-0.8,0.8-0.8,2,0,2.8l24.1,24.1c0.4,0.4,0.9,0.6,1.4,0.6
			c0.5,0,1-0.2,1.4-0.6l5.2-5.2C33.5,66.8,33.5,65.5,32.8,64.7z"/>
		<path class="st0" d="M61,13.6c-0.3-0.5-0.7-0.8-1.2-1l-4.2-1.3c-1.1-0.3-2.2,0.3-2.5,1.4L33.4,79.4c-0.2,0.5-0.1,1.1,0.2,1.5
			c0.3,0.5,0.7,0.8,1.2,1l4.2,1.3c0.2,0.1,0.4,0.1,0.6,0.1c0.9,0,1.7-0.6,1.9-1.4l19.7-66.6C61.3,14.6,61.2,14.1,61,13.6z"/>
	</g>
</g>
</svg>
