<?xml version="1.0" encoding="utf-8"?>
<!-- Generator: Adobe Illustrator 26.0.2, SVG Export Plug-In . SVG Version: 6.00 Build 0)  -->
<svg version="1.1" id="Слой_1" xmlns="http://www.w3.org/2000/svg" xmlns:xlink="http://www.w3.org/1999/xlink" x="0px" y="0px"
	 viewBox="0 0 24 24" style="enable-background:new 0 0 24 24;" xml:space="preserve">
<style type="text/css">
	.st0{fill:#6675BC;}
</style>
<path class="st0" d="M12.8,19c0-0.4-0.3-0.8-0.8-0.8s-0.8,0.3-0.8,0.8H12.8z M11.2,19c0,0.4,0.3,0.8,0.8,0.8s0.8-0.3,0.8-0.8H11.2z
	 M16,9h-0.8v0L16,9z M11.3,16c0,0.4,0.3,0.7,0.8,0.7c0.4,0,0.8-0.3,0.8-0.7H11.3z M7.4,7.8C7.3,8.2,7.5,8.6,7.9,8.7
	c0.4,0.1,0.8-0.1,0.9-0.5L7.4,7.8z M11.2,19L11.2,19l1.5,0v0H11.2z M15.2,9c0,0.9-0.2,1.3-0.5,1.6c-0.3,0.3-0.6,0.5-1.2,0.9
	c-0.5,0.3-1.1,0.7-1.6,1.5c-0.5,0.7-0.7,1.7-0.7,3h1.5c0-1.1,0.2-1.8,0.5-2.2c0.3-0.4,0.7-0.7,1.1-1c0.5-0.3,1.1-0.6,1.6-1.2
	c0.5-0.6,0.8-1.4,0.8-2.6L15.2,9z M12,5.7c1.8,0,3.2,1.5,3.2,3.3h1.5c0-2.6-2.1-4.8-4.8-4.8V5.7z M8.9,8.2c0.4-1.4,1.6-2.4,3.1-2.4
	V4.2c-2.2,0-4.1,1.5-4.6,3.6L8.9,8.2z"/>
</svg>
